<svg width="17" height="17" viewBox="0 0 17 17" fill="none" xmlns="http://www.w3.org/2000/svg">
<path fill-rule="evenodd" clip-rule="evenodd" d="M12.7527 1.33242C13.1551 0.929954 13.8076 0.929954 14.2101 1.33242L15.6675 2.78986C16.07 3.19233 16.07 3.84485 15.6675 4.24731L14.2101 5.70478L11.2952 2.78994L10.5665 3.51866L13.4813 6.4335L4.95734 14.9575L1.31372 15.6862L2.04245 12.0426L12.7527 1.33242ZM1.09477 16.781L5.46542 15.9069L16.3963 4.97603C17.2012 4.17111 17.2012 2.86606 16.3963 2.06114L14.9388 0.603694C14.1339 -0.201231 12.8289 -0.201231 12.0239 0.603694L1.09308 11.5345L0.218954 15.9052L0 17L1.09477 16.781Z" fill="#6D6D6D"/>
</svg>
